/* XPM */
static char * bottom_left_active_xpm[] = {
"48 25 5 1",
" 	c None",
".	c #989898",
"+	c #7777BB",
"@	c #888888",
"#	c #606060",
"                              .++++++@          ",
"                              .++++++@          ",
"                              .++++++@          ",
"                              .++++++@          ",
"                              .++++++@          ",
"                              .++++++@          ",
"                              .++++++@          ",
"                              .++++++@          ",
"                              .++++++@          ",
"                              .++++++@          ",
"                              .++++++@          ",
"                              .++++++@          ",
"                              .++++++@          ",
"                              .++++++@          ",
"                              .++++++@          ",
"                              .++++++@          ",
"                              .++++++@          ",
"                              .++++++@..........",
"                              .+++++++++++++++++",
"                               .++++++++++++++++",
"                               .++++++++++++++++",
"                                .+++++++++++++++",
"                                 .++++++++++++++",
"                                  ++++++++++++++",
"                                    ############"};
