/* XPM */
static char * bottom_active_xpm[] = {
"128 8 3 1",
" 	c #989898",
".	c #AAAAAA",
"+	c #606060",
"                                                                                                                                ",
"................................................................................................................................",
"................................................................................................................................",
"................................................................................................................................",
"................................................................................................................................",
"................................................................................................................................",
"................................................................................................................................",
"++++++++++++++++++++++++++++++++++++++++++++++++++++++++++++++++++++++++++++++++++++++++++++++++++++++++++++++++++++++++++++++++"};
