/* XPM */
static char * bottom_active_xpm[] = {
"128 8 3 1",
" 	c #989898",
".	c #7777BB",
"+	c #606060",
"                                                                                                                                ",
"................................................................................................................................",
"................................................................................................................................",
"................................................................................................................................",
"................................................................................................................................",
"................................................................................................................................",
"................................................................................................................................",
"++++++++++++++++++++++++++++++++++++++++++++++++++++++++++++++++++++++++++++++++++++++++++++++++++++++++++++++++++++++++++++++++"};
