/* XPM */
static char * bottom_right_active_xpm[] = {
"25 25 4 1",
" 	c None",
".	c #989898",
"+	c #7777BB",
"@	c #606060",
"                 .++++++@",
"                 .++++++@",
"                 .++++++@",
"                 .++++++@",
"                 .++++++@",
"                 .++++++@",
"                 .++++++@",
"                 .++++++@",
"                 .++++++@",
"                 .++++++@",
"                 .++++++@",
"                 .++++++@",
"                 .++++++@",
"                 .++++++@",
"                 .++++++@",
"                 .++++++@",
"                 .++++++@",
"..................++++++@",
"++++++++++++++++++++++++@",
"+++++++++++++++++++++++@ ",
"+++++++++++++++++++++++@ ",
"++++++++++++++++++++++@  ",
"+++++++++++++++++++++@   ",
"+++++++++++++++++++@     ",
"@@@@@@@@@@@@@@@@@@       "};
