/* XPM */
static char *close_xpm[] = {
"16 20 8 1",
" 	c None",
"1	c #567B9C",
"2	c #FFFFFF",
"3	c #4B58A2",
"4	c #ED2323",
"5	c #FFA0A0",
"6	c #BA1B1B",
"7	c #FFFFFF",
" 66666666666666 ",
"6666666666666666",
"6666666666666666",
"6666666666666666",
"6666576666756666",
"6666777667776666",
"6666677777766666",
"6666667777666666",
"6666667777666666",
"6666677777766666",
"6666777667776666",
"6666576666756666",
"6666666666666666",
"6666666666666666",
"6666666666666666",
" 66666666666666 ",
"                ",
"                ",
"                ",
"                "
};
