/* XPM */
static char * left_active_xpm[] = {
"38 128 4 1",
" 	c None",
".	c #989898",
"+	c #7777BB",
"@	c #888888",
"                              .++++++@",
"                              .++++++@",
"                              .++++++@",
"                              .++++++@",
"                              .++++++@",
"                              .++++++@",
"                              .++++++@",
"                              .++++++@",
"                              .++++++@",
"                              .++++++@",
"                              .++++++@",
"                              .++++++@",
"                              .++++++@",
"                              .++++++@",
"                              .++++++@",
"                              .++++++@",
"                              .++++++@",
"                              .++++++@",
"                              .++++++@",
"                              .++++++@",
"                              .++++++@",
"                              .++++++@",
"                              .++++++@",
"                              .++++++@",
"                              .++++++@",
"                              .++++++@",
"                              .++++++@",
"                              .++++++@",
"                              .++++++@",
"                              .++++++@",
"                              .++++++@",
"                              .++++++@",
"                              .++++++@",
"                              .++++++@",
"                              .++++++@",
"                              .++++++@",
"                              .++++++@",
"                              .++++++@",
"                              .++++++@",
"                              .++++++@",
"                              .++++++@",
"                              .++++++@",
"                              .++++++@",
"                              .++++++@",
"                              .++++++@",
"                              .++++++@",
"                              .++++++@",
"                              .++++++@",
"                              .++++++@",
"                              .++++++@",
"                              .++++++@",
"                              .++++++@",
"                              .++++++@",
"                              .++++++@",
"                              .++++++@",
"                              .++++++@",
"                              .++++++@",
"                              .++++++@",
"                              .++++++@",
"                              .++++++@",
"                              .++++++@",
"                              .++++++@",
"                              .++++++@",
"                              .++++++@",
"                              .++++++@",
"                              .++++++@",
"                              .++++++@",
"                              .++++++@",
"                              .++++++@",
"                              .++++++@",
"                              .++++++@",
"                              .++++++@",
"                              .++++++@",
"                              .++++++@",
"                              .++++++@",
"                              .++++++@",
"                              .++++++@",
"                              .++++++@",
"                              .++++++@",
"                              .++++++@",
"                              .++++++@",
"                              .++++++@",
"                              .++++++@",
"                              .++++++@",
"                              .++++++@",
"                              .++++++@",
"                              .++++++@",
"                              .++++++@",
"                              .++++++@",
"                              .++++++@",
"                              .++++++@",
"                              .++++++@",
"                              .++++++@",
"                              .++++++@",
"                              .++++++@",
"                              .++++++@",
"                              .++++++@",
"                              .++++++@",
"                              .++++++@",
"                              .++++++@",
"                              .++++++@",
"                              .++++++@",
"                              .++++++@",
"                              .++++++@",
"                              .++++++@",
"                              .++++++@",
"                              .++++++@",
"                              .++++++@",
"                              .++++++@",
"                              .++++++@",
"                              .++++++@",
"                              .++++++@",
"                              .++++++@",
"                              .++++++@",
"                              .++++++@",
"                              .++++++@",
"                              .++++++@",
"                              .++++++@",
"                              .++++++@",
"                              .++++++@",
"                              .++++++@",
"                              .++++++@",
"                              .++++++@",
"                              .++++++@",
"                              .++++++@",
"                              .++++++@",
"                              .++++++@",
"                              .++++++@"};
