/* XPM */
static char * left_inactive_xpm[] = {
"38 128 4 1",
" 	c None",
".	c #989898",
"+	c #AAAAAA",
"@	c #888888",
"                              .++++++@",
"                              .++++++@",
"                              .++++++@",
"                              .++++++@",
"                              .++++++@",
"                              .++++++@",
"                              .++++++@",
"                              .++++++@",
"                              .++++++@",
"                              .++++++@",
"                              .++++++@",
"                              .++++++@",
"                              .++++++@",
"                              .++++++@",
"                              .++++++@",
"                              .++++++@",
"                              .++++++@",
"                              .++++++@",
"                              .++++++@",
"                              .++++++@",
"                              .++++++@",
"                              .++++++@",
"                              .++++++@",
"                              .++++++@",
"                              .++++++@",
"                              .++++++@",
"                              .++++++@",
"                              .++++++@",
"                              .++++++@",
"                              .++++++@",
"                              .++++++@",
"                              .++++++@",
"                              .++++++@",
"                              .++++++@",
"                              .++++++@",
"                              .++++++@",
"                              .++++++@",
"                              .++++++@",
"                              .++++++@",
"                              .++++++@",
"                              .++++++@",
"                              .++++++@",
"                              .++++++@",
"                              .++++++@",
"                              .++++++@",
"                              .++++++@",
"                              .++++++@",
"                              .++++++@",
"                              .++++++@",
"                              .++++++@",
"                              .++++++@",
"                              .++++++@",
"                              .++++++@",
"                              .++++++@",
"                              .++++++@",
"                              .++++++@",
"                              .++++++@",
"                              .++++++@",
"                              .++++++@",
"                              .++++++@",
"                              .++++++@",
"                              .++++++@",
"                              .++++++@",
"                              .++++++@",
"                              .++++++@",
"                              .++++++@",
"                              .++++++@",
"                              .++++++@",
"                              .++++++@",
"                              .++++++@",
"                              .++++++@",
"                              .++++++@",
"                              .++++++@",
"                              .++++++@",
"                              .++++++@",
"                              .++++++@",
"                              .++++++@",
"                              .++++++@",
"                              .++++++@",
"                              .++++++@",
"                              .++++++@",
"                              .++++++@",
"                              .++++++@",
"                              .++++++@",
"                              .++++++@",
"                              .++++++@",
"                              .++++++@",
"                              .++++++@",
"                              .++++++@",
"                              .++++++@",
"                              .++++++@",
"                              .++++++@",
"                              .++++++@",
"                              .++++++@",
"                              .++++++@",
"                              .++++++@",
"                              .++++++@",
"                              .++++++@",
"                              .++++++@",
"                              .++++++@",
"                              .++++++@",
"                              .++++++@",
"                              .++++++@",
"                              .++++++@",
"                              .++++++@",
"                              .++++++@",
"                              .++++++@",
"                              .++++++@",
"                              .++++++@",
"                              .++++++@",
"                              .++++++@",
"                              .++++++@",
"                              .++++++@",
"                              .++++++@",
"                              .++++++@",
"                              .++++++@",
"                              .++++++@",
"                              .++++++@",
"                              .++++++@",
"                              .++++++@",
"                              .++++++@",
"                              .++++++@",
"                              .++++++@",
"                              .++++++@",
"                              .++++++@",
"                              .++++++@",
"                              .++++++@",
"                              .++++++@"};
