/* XPM */
static char *maximize_xpm[] = {
"16 20 5 1",
" 	c None",
"1	c #567B9C",
"2	c #FFFFFF",
"3	c #B4BAB5",
"4	c #FFFFFF",
" 33333333333333 ",
"3333333333333333",
"3333333333333333",
"3333331444441333",
"3333334444444333",
"3333333333344333",
"3331444441344333",
"3334444444344333",
"3334433344344333",
"3334433344341333",
"3334433344333333",
"3334444444333333",
"3331444441333333",
"3333333333333333",
"3333333333333333",
" 33333333333333 ",
"                ",
"                ",
"                ",
"                "
};
