/* XPM */
static char *maximize_xpm[] = {
"16 20 5 1",
" 	c None",
"1	c #567B9C",
"2	c #FFFFFF",
"3	c #4B58A2",
"4	c #FFFFFF",
" 33333333333333 ",
"3333333333333333",
"3333333333333333",
"3333333333333333",
"3333144444413333",
"3333444444443333",
"3333443333443333",
"3333443333443333",
"3333443333443333",
"3333443333443333",
"3333444444443333",
"3333144444413333",
"3333333333333333",
"3333333333333333",
"3333333333333333",
" 33333333333333 ",
"                ",
"                ",
"                ",
"                "
};
