/* XPM */
static char * right_active_xpm[] = {
"8 128 3 1",
" 	c #989898",
".	c #AAAAAA",
"+	c #606060",
" ......+",
" ......+",
" ......+",
" ......+",
" ......+",
" ......+",
" ......+",
" ......+",
" ......+",
" ......+",
" ......+",
" ......+",
" ......+",
" ......+",
" ......+",
" ......+",
" ......+",
" ......+",
" ......+",
" ......+",
" ......+",
" ......+",
" ......+",
" ......+",
" ......+",
" ......+",
" ......+",
" ......+",
" ......+",
" ......+",
" ......+",
" ......+",
" ......+",
" ......+",
" ......+",
" ......+",
" ......+",
" ......+",
" ......+",
" ......+",
" ......+",
" ......+",
" ......+",
" ......+",
" ......+",
" ......+",
" ......+",
" ......+",
" ......+",
" ......+",
" ......+",
" ......+",
" ......+",
" ......+",
" ......+",
" ......+",
" ......+",
" ......+",
" ......+",
" ......+",
" ......+",
" ......+",
" ......+",
" ......+",
" ......+",
" ......+",
" ......+",
" ......+",
" ......+",
" ......+",
" ......+",
" ......+",
" ......+",
" ......+",
" ......+",
" ......+",
" ......+",
" ......+",
" ......+",
" ......+",
" ......+",
" ......+",
" ......+",
" ......+",
" ......+",
" ......+",
" ......+",
" ......+",
" ......+",
" ......+",
" ......+",
" ......+",
" ......+",
" ......+",
" ......+",
" ......+",
" ......+",
" ......+",
" ......+",
" ......+",
" ......+",
" ......+",
" ......+",
" ......+",
" ......+",
" ......+",
" ......+",
" ......+",
" ......+",
" ......+",
" ......+",
" ......+",
" ......+",
" ......+",
" ......+",
" ......+",
" ......+",
" ......+",
" ......+",
" ......+",
" ......+",
" ......+",
" ......+",
" ......+",
" ......+",
" ......+",
" ......+",
" ......+"};
