/* XPM */
static char * right_active_xpm[] = {
"8 128 3 1",
" 	c #989898",
".	c #7777BB",
"+	c #606060",
" ......+",
" ......+",
" ......+",
" ......+",
" ......+",
" ......+",
" ......+",
" ......+",
" ......+",
" ......+",
" ......+",
" ......+",
" ......+",
" ......+",
" ......+",
" ......+",
" ......+",
" ......+",
" ......+",
" ......+",
" ......+",
" ......+",
" ......+",
" ......+",
" ......+",
" ......+",
" ......+",
" ......+",
" ......+",
" ......+",
" ......+",
" ......+",
" ......+",
" ......+",
" ......+",
" ......+",
" ......+",
" ......+",
" ......+",
" ......+",
" ......+",
" ......+",
" ......+",
" ......+",
" ......+",
" ......+",
" ......+",
" ......+",
" ......+",
" ......+",
" ......+",
" ......+",
" ......+",
" ......+",
" ......+",
" ......+",
" ......+",
" ......+",
" ......+",
" ......+",
" ......+",
" ......+",
" ......+",
" ......+",
" ......+",
" ......+",
" ......+",
" ......+",
" ......+",
" ......+",
" ......+",
" ......+",
" ......+",
" ......+",
" ......+",
" ......+",
" ......+",
" ......+",
" ......+",
" ......+",
" ......+",
" ......+",
" ......+",
" ......+",
" ......+",
" ......+",
" ......+",
" ......+",
" ......+",
" ......+",
" ......+",
" ......+",
" ......+",
" ......+",
" ......+",
" ......+",
" ......+",
" ......+",
" ......+",
" ......+",
" ......+",
" ......+",
" ......+",
" ......+",
" ......+",
" ......+",
" ......+",
" ......+",
" ......+",
" ......+",
" ......+",
" ......+",
" ......+",
" ......+",
" ......+",
" ......+",
" ......+",
" ......+",
" ......+",
" ......+",
" ......+",
" ......+",
" ......+",
" ......+",
" ......+",
" ......+",
" ......+",
" ......+"};
