/* XPM */
static char *shade_xpm[] = {
"16 20 5 1",
" 	c None",
"1	c #567B9C",
"2	c #4B58A2",
"3	c #FFFFFF",
"4	c #949595",
" 33333333333333 ",
"3333333333333333",
"3333333333333333",
"3333333333333333",
"3333333443333333",
"3333333443333333",
"3333333443333333",
"3333443443443333",
"3333444444443333",
"3333344444433333",
"3333334444333333",
"3333333443333333",
"3333333333333333",
"3333333333333333",
"3333333333333333",
" 33333333333333 ",
"                ",
"                ",
"                ",
"                "
};
