/* XPM */
static char * title_4_active_xpm[] = {
"16 35 5 1",
" 	c None",
"-	c #989898",
".	c #7777BB s active_color_1",
"+	c #606060",
"@	c #888888",
"-------         ",
"........+       ",
"..........+     ",
"............+   ",
".............+  ",
".............+  ",
"..............+ ",
"..............+ ",
"...............+",
"...............+",
"...............+",
"...............+",
"...............+",
"...............+",
"...............+",
"...............+",
"...............+",
"...............+",
"...............+",
"...............+",
"...............+",
"...............+",
"...............+",
"...............+",
"...............+",
"...............+",
"...............+",
"...............+",
"................",
"................",
"................",
"................",
"................",
"................",
"@@@@@@@@@@@@@@@@"};
