/* XPM */
static char * title_2_active_xpm[] = {
"5 35 3 1",
"-	c #989898",
".	c #AAAAAA s inactive_color_1",
"+	c #888888",
"-----",
".....",
".....",
".....",
".....",
".....",
".....",
".....",
".....",
".....",
".....",
".....",
".....",
".....",
".....",
".....",
".....",
".....",
".....",
".....",
".....",
".....",
".....",
".....",
".....",
".....",
".....",
".....",
".....",
".....",
".....",
".....",
".....",
".....",
"+++++"};
