/* XPM */
static char * title_3_active_xpm[] = {
"16 35 3 1",
"-	c #989898",
".	c #7777BB s active_color_1",
"+	c #888888",
"----------------",
"................",
"................",
"................",
"................",
"................",
"................",
"................",
"................",
"................",
"................",
"................",
"................",
"................",
"................",
"................",
"................",
"................",
"................",
"................",
"................",
"................",
"................",
"................",
"................",
"................",
"................",
"................",
"................",
"................",
"................",
"................",
"................",
"................",
"++++++++++++++++"};
