/* XPM */
static char * title_3_active_xpm[] = {
"16 35 3 1",
"-	c #989898",
".	c #AAAAAA s inactive_color_1",
"+	c #888888",
"----------------",
"................",
"................",
"................",
"................",
"................",
"................",
"................",
"................",
"................",
"................",
"................",
"................",
"................",
"................",
"................",
"................",
"................",
"................",
"................",
"................",
"................",
"................",
"................",
"................",
"................",
"................",
"................",
"................",
"................",
"................",
"................",
"................",
"................",
"++++++++++++++++"};
