/* XPM */
static char * title_2_active_xpm[] = {
"5 35 3 1",
"-	c #989898",
".	c #7777BB s active_color_1",
"+	c #888888",
"-----",
".....",
".....",
".....",
".....",
".....",
".....",
".....",
".....",
".....",
".....",
".....",
".....",
".....",
".....",
".....",
".....",
".....",
".....",
".....",
".....",
".....",
".....",
".....",
".....",
".....",
".....",
".....",
".....",
".....",
".....",
".....",
".....",
".....",
"+++++"};
