/* XPM */
static char * top_right_active_xpm[] = {
"25 56 5 1",
" 	c None",
".	c #989898",
"+	c #606060",
"@	c #AAAAAA",
"#	c #888888",
"                         ",
"                         ",
"                         ",
"                         ",
"                         ",
"                         ",
"                         ",
"                         ",
"                         ",
"                         ",
"                         ",
"                         ",
"                         ",
"                         ",
"                         ",
"                         ",
"                         ",
"                         ",
"                         ",
"                         ",
"                         ",
"                         ",
"                         ",
"                         ",
"                         ",
"                         ",
"                         ",
"................         ",
"@@@@@@@@@@@@@@@@@@+      ",
"@@@@@@@@@@@@@@@@@@@@+    ",
"@@@@@@@@@@@@@@@@@@@@@+   ",
"@@@@@@@@@@@@@@@@@@@@@@+  ",
"@@@@@@@@@@@@@@@@@@@@@@@+ ",
"@@@@@@@@@@@@@@@@@@@@@@@+ ",
"#################.@@@@@@+",
"                 .@@@@@@+",
"                 .@@@@@@+",
"                 .@@@@@@+",
"                 .@@@@@@+",
"                 .@@@@@@+",
"                 .@@@@@@+",
"                 .@@@@@@+",
"                 .@@@@@@+",
"                 .@@@@@@+",
"                 .@@@@@@+",
"                 .@@@@@@+",
"                 .@@@@@@+",
"                 .@@@@@@+",
"                 .@@@@@@+",
"                 .@@@@@@+",
"                 .@@@@@@+",
"                 .@@@@@@+",
"                 .@@@@@@+",
"                 .@@@@@@+",
"                 .@@@@@@+",
"                 .@@@@@@+"};
