/* XPM */
static char * top_left_inactive_xpm[] = {
"48 52 4 1",
" 	c None",
".	c #989898",
"+	c #AAAAAA",
"@	c #888888",
"       .........................................",
"     .++++++++++++++++++++++++++++++++++++++++++",
"   .++++++++++++++++++++++++++++++++++++++++++++",
"  .+++++++++++++++++++++++++++++++++++++++++++++",
" .++++++++++++++++++++++++++++++++++++++++++++++",
" .++++++++++++++++++++++++++++++++++++++++++++++",
".+++++++++++++++++++++++++++++++++++++++++++++++",
".+++++++++++++++++++++++++++++++++++++++++++++++",
".+++++++++++++++++++++++++++++++++++++++++++++++",
".+++++++++++++++++++++++++++++++++++++++++++++++",
".+++++++++++++++++++++++++++++++++++++++++++++++",
".+++++++++++++++++++++++++++++++++++++++++++++++",
".+++++++++++++++++++++++++++++++++++++++++++++++",
".+++++++++++++++++++++++++++++++++++++++++++++++",
".+++++++++++++++++++++++++++++++++++++++++++++++",
".+++++++++++++++++++++++++++++++++++++++++++++++",
".+++++++++++++++++++++++++++++++++++++++++++++++",
".+++++++++++++++++++++++++++++++++++++++++++++++",
".+++++++++++++++++++++++++++++++++++++++++++++++",
".+++++++++++++++++++++++++++++++++++++++++++++++",
".+++++++++++++++++++++++++++++++++++++++++++++++",
".+++++++++++++++++++++++++++++++++++++++++++++++",
".+++++++++++++++++++++++++++++++++++++++++++++++",
".+++++++++++++++++++++++++++++++++++++++++++++++",
".+++++++++++++++++++++++++++++++++++++++++++++++",
".+++++++++++++++++++++++++++++++++++++++++++++++",
".+++++++++++++++++++++++++++++++++++++++++++++++",
".+++++++++++++++++++++++++++++++++++++++++++++++",
".+++++++++++++++++++++++++++++++++++++++++++++++",
".+++++++++++++++++++++++++++++++++++++++++++++++",
".+++++++++++++++++++++++++++++++++++++++++++++++",
".+++++++++++++++++++++++++++++++++++++++++++++++",
".+++++++++++++++++++++++++++++++++++++++++++++++",
".+++++++++++++++++++++++++++++++++++++++++++++++",
".++++++++++++++++++++++++++++++++++++@@@@@@@@@@@",
".++++++++++++++++++++++++++++++++++++@          ",
".++++++++++++++++++++++++++++++++++++@          ",
".++++++++++++++++++++++++++++++++++++@          ",
".++++++++++++++++++++++++++++++++++++@          ",
".++++++++++++++++++++++++++++++++++++@          ",
".++++++++++++++++++++++++++++++++++++@          ",
".++++++++++++++++++++++++++++++++++++@          ",
".++++++++++++++++++++++++++++++++++++@          ",
".++++++++++++++++++++++++++++++++++++@          ",
".++++++++++++++++++++++++++++++++++++@          ",
".++++++++++++++++++++++++++++++++++++@          ",
" .+++++++++++++++++++++++++++++++++++@          ",
" .+++++++++++++++++++++++++++++++++++@          ",
"  .++++++++++++++++++++++++++++++++++@          ",
"   .+++++++++++++++++++++++++++++++++@          ",
"     .+++++++++++++++++++++++++++++++@          ",
"       .+++++++++++++++++++++++++++++@          "};
